<svg width="99" height="16" viewBox="0 0 99 16" fill="none" xmlns="http://www.w3.org/2000/svg">
<path d="M89.6598 2.0156C89.1936 3.13043 88.6262 4.48741 88.3987 5.03227C88.1725 5.57565 87.9815 6.02601 87.9815 6.02601C87.9815 6.02601 87.549 6.06293 87.0237 6.10279C86.4998 6.14266 85.5434 6.21501 84.8988 6.26374C84.2541 6.31395 83.3721 6.38039 82.9396 6.41288C82.507 6.44536 82.118 6.47637 82.0758 6.4808L82 6.48966L82.0688 6.55906C82.1081 6.59597 82.5407 7.00204 83.0295 7.46125C83.5196 7.92047 84.1614 8.52144 84.4564 8.79756C86.2358 10.4661 86.6473 10.8515 86.6642 10.8648C86.688 10.884 86.7681 10.5281 85.903 14.2093C85.5434 15.739 85.2527 17 85.2527 17C85.2527 17 86.4732 16.2632 87.9605 15.3507C89.4464 14.4381 90.6725 13.6939 90.6851 13.6969C90.6963 13.6998 91.2441 14.0542 91.8999 14.4824C92.5572 14.9121 93.5361 15.5515 94.0768 15.9044C94.6175 16.2573 95.2158 16.6486 95.4068 16.7726C95.5964 16.8981 95.7622 17 95.7622 17C95.7622 17 95.7678 16.9749 95.7622 16.9439C95.7537 16.8937 95.1849 14.1428 94.6723 11.6754C94.5501 11.0818 94.449 10.5857 94.449 10.5724C94.449 10.5532 95.3605 9.7411 98.6581 6.81894C99.0205 6.49852 99.0247 6.49409 98.9811 6.48375C98.9559 6.47785 97.5613 6.33019 95.8815 6.15447C94.2018 5.97876 92.8142 5.82963 92.7974 5.82224C92.7763 5.81338 92.7103 5.65834 92.5179 5.16368C92.3803 4.80635 91.9393 3.6679 91.539 2.63282C91.1387 1.59773 90.7469 0.583315 90.6682 0.381023C90.5896 0.177254 90.5222 0.00744629 90.5166 6.29425e-05C90.5123 -0.00584412 90.1261 0.900782 89.6598 2.0156Z" fill="#6C6845"/>
<path d="M89.6598 2.0156C89.1936 3.13043 88.6262 4.48741 88.3987 5.03227C88.1725 5.57565 87.9815 6.02601 87.9815 6.02601C87.9815 6.02601 87.549 6.06293 87.0237 6.10279C86.4998 6.14266 85.5434 6.21501 84.8988 6.26374C84.2541 6.31395 83.3721 6.38039 82.9396 6.41288C82.507 6.44536 82.118 6.47637 82.0758 6.4808L82 6.48966L82.0688 6.55906C82.1081 6.59597 82.5407 7.00204 83.0295 7.46125C83.5196 7.92047 84.1614 8.52144 84.4564 8.79756C86.2358 10.4661 86.6473 10.8515 86.6642 10.8648C86.688 10.884 86.7681 10.5281 85.903 14.2093C85.5434 15.739 85.2527 17 85.2527 17C85.2527 17 86.4732 16.2632 87.9605 15.3507C89.4464 14.4381 90.6725 13.6939 90.6851 13.6969C90.6963 13.6998 91.2441 14.0542 91.8999 14.4824C92.5572 14.9121 93.5361 15.5515 94.0768 15.9044C94.6175 16.2573 95.2158 16.6486 95.4068 16.7726C95.5964 16.8981 95.7622 17 95.7622 17C95.7622 17 95.7678 16.9749 95.7622 16.9439C95.7537 16.8937 95.1849 14.1428 94.6723 11.6754C94.5501 11.0818 94.449 10.5857 94.449 10.5724C94.449 10.5532 95.3605 9.7411 98.6581 6.81894C99.0205 6.49852 99.0247 6.49409 98.9811 6.48375C98.9559 6.47785 97.5613 6.33019 95.8815 6.15447C94.2018 5.97876 92.8142 5.82963 92.7974 5.82224C92.7763 5.81338 92.7103 5.65834 92.5179 5.16368C92.3803 4.80635 91.9393 3.6679 91.539 2.63282C91.1387 1.59773 90.7469 0.583315 90.6682 0.381023C90.5896 0.177254 90.5222 0.00744629 90.5166 6.29425e-05C90.5123 -0.00584412 90.1261 0.900782 89.6598 2.0156Z" fill="white" fill-opacity="0.6"/>
<path d="M68.6598 2.0156C68.1936 3.13043 67.6262 4.48741 67.3987 5.03227C67.1725 5.57565 66.9815 6.02601 66.9815 6.02601C66.9815 6.02601 66.549 6.06293 66.0237 6.10279C65.4998 6.14266 64.5434 6.21501 63.8988 6.26374C63.2541 6.31395 62.3721 6.38039 61.9396 6.41288C61.507 6.44536 61.118 6.47637 61.0758 6.4808L61 6.48966L61.0688 6.55906C61.1081 6.59597 61.5407 7.00204 62.0295 7.46125C62.5196 7.92047 63.1614 8.52144 63.4564 8.79756C65.2358 10.4661 65.6473 10.8515 65.6642 10.8648C65.688 10.884 65.7681 10.5281 64.903 14.2093C64.5434 15.739 64.2527 17 64.2527 17C64.2527 17 65.4732 16.2632 66.9605 15.3507C68.4464 14.4381 69.6725 13.6939 69.6851 13.6969C69.6963 13.6998 70.2441 14.0542 70.8999 14.4824C71.5572 14.9121 72.5361 15.5515 73.0768 15.9044C73.6175 16.2573 74.2158 16.6486 74.4068 16.7726C74.5964 16.8981 74.7622 17 74.7622 17C74.7622 17 74.7678 16.9749 74.7622 16.9439C74.7537 16.8937 74.1849 14.1428 73.6723 11.6754C73.5501 11.0818 73.449 10.5857 73.449 10.5724C73.449 10.5532 74.3605 9.7411 77.6581 6.81894C78.0205 6.49852 78.0247 6.49409 77.9811 6.48375C77.9559 6.47785 76.5613 6.33019 74.8815 6.15447C73.2018 5.97876 71.8142 5.82963 71.7974 5.82224C71.7763 5.81338 71.7103 5.65834 71.5179 5.16368C71.3803 4.80635 70.9393 3.6679 70.539 2.63282C70.1387 1.59773 69.7469 0.583315 69.6682 0.381023C69.5896 0.177254 69.5222 0.00744629 69.5166 6.29425e-05C69.5123 -0.00584412 69.1261 0.900782 68.6598 2.0156Z" fill="#6C6845"/>
<path d="M68.6598 2.0156C68.1936 3.13043 67.6262 4.48741 67.3987 5.03227C67.1725 5.57565 66.9815 6.02601 66.9815 6.02601C66.9815 6.02601 66.549 6.06293 66.0237 6.10279C65.4998 6.14266 64.5434 6.21501 63.8988 6.26374C63.2541 6.31395 62.3721 6.38039 61.9396 6.41288C61.507 6.44536 61.118 6.47637 61.0758 6.4808L61 6.48966L61.0688 6.55906C61.1081 6.59597 61.5407 7.00204 62.0295 7.46125C62.5196 7.92047 63.1614 8.52144 63.4564 8.79756C65.2358 10.4661 65.6473 10.8515 65.6642 10.8648C65.688 10.884 65.7681 10.5281 64.903 14.2093C64.5434 15.739 64.2527 17 64.2527 17C64.2527 17 65.4732 16.2632 66.9605 15.3507C68.4464 14.4381 69.6725 13.6939 69.6851 13.6969C69.6963 13.6998 70.2441 14.0542 70.8999 14.4824C71.5572 14.9121 72.5361 15.5515 73.0768 15.9044C73.6175 16.2573 74.2158 16.6486 74.4068 16.7726C74.5964 16.8981 74.7622 17 74.7622 17C74.7622 17 74.7678 16.9749 74.7622 16.9439C74.7537 16.8937 74.1849 14.1428 73.6723 11.6754C73.5501 11.0818 73.449 10.5857 73.449 10.5724C73.449 10.5532 74.3605 9.7411 77.6581 6.81894C78.0205 6.49852 78.0247 6.49409 77.9811 6.48375C77.9559 6.47785 76.5613 6.33019 74.8815 6.15447C73.2018 5.97876 71.8142 5.82963 71.7974 5.82224C71.7763 5.81338 71.7103 5.65834 71.5179 5.16368C71.3803 4.80635 70.9393 3.6679 70.539 2.63282C70.1387 1.59773 69.7469 0.583315 69.6682 0.381023C69.5896 0.177254 69.5222 0.00744629 69.5166 6.29425e-05C69.5123 -0.00584412 69.1261 0.900782 68.6598 2.0156Z" fill="white" fill-opacity="0.6"/>
<path d="M7.65985 2.01554C7.19357 3.13037 6.62617 4.48735 6.39865 5.03221C6.17254 5.57559 5.98153 6.02595 5.98153 6.02595C5.98153 6.02595 5.54896 6.06287 5.0237 6.10273C4.49984 6.1426 3.54342 6.21495 2.89878 6.26368C2.25413 6.31388 1.37214 6.38033 0.939574 6.41282C0.507005 6.4453 0.117973 6.47631 0.0758401 6.48074L0 6.4896L0.0688178 6.559C0.108142 6.59591 0.540712 7.00197 1.02946 7.46119C1.51961 7.92041 2.16144 8.52138 2.45638 8.7975C4.23581 10.466 4.64731 10.8514 4.66416 10.8647C4.68804 10.8839 4.76809 10.5281 3.90295 14.2092C3.54342 15.7389 3.2527 16.9999 3.2527 16.9999C3.2527 16.9999 4.47316 16.2631 5.96047 15.3506C7.44637 14.4381 8.67245 13.6939 8.68509 13.6968C8.69633 13.6998 9.24406 14.0541 9.89994 14.4824C10.5572 14.912 11.5361 15.5514 12.0768 15.9043C12.6175 16.2572 13.2158 16.6485 13.4068 16.7725C13.5964 16.8981 13.7622 16.9999 13.7622 16.9999C13.7622 16.9999 13.7678 16.9748 13.7622 16.9438C13.7537 16.8936 13.1849 14.1427 12.6723 11.6754C12.5501 11.0818 12.449 10.5856 12.449 10.5724C12.449 10.5532 13.3605 9.74104 16.6581 6.81888C17.0205 6.49846 17.0247 6.49403 16.9811 6.48369C16.9559 6.47779 15.5613 6.33013 13.8815 6.15441C12.2018 5.9787 10.8142 5.82957 10.7974 5.82218C10.7763 5.81332 10.7103 5.65828 10.5179 5.16362C10.3803 4.80629 9.93926 3.66784 9.53899 2.63276C9.13873 1.59767 8.74689 0.583254 8.66824 0.380962C8.58959 0.177193 8.52218 0.00738525 8.51656 1.90735e-06C8.51234 -0.00590515 8.12612 0.900721 7.65985 2.01554Z" fill="#6C6845"/>
<path d="M7.65985 2.01554C7.19357 3.13037 6.62617 4.48735 6.39865 5.03221C6.17254 5.57559 5.98153 6.02595 5.98153 6.02595C5.98153 6.02595 5.54896 6.06287 5.0237 6.10273C4.49984 6.1426 3.54342 6.21495 2.89878 6.26368C2.25413 6.31388 1.37214 6.38033 0.939574 6.41282C0.507005 6.4453 0.117973 6.47631 0.0758401 6.48074L0 6.4896L0.0688178 6.559C0.108142 6.59591 0.540712 7.00197 1.02946 7.46119C1.51961 7.92041 2.16144 8.52138 2.45638 8.7975C4.23581 10.466 4.64731 10.8514 4.66416 10.8647C4.68804 10.8839 4.76809 10.5281 3.90295 14.2092C3.54342 15.7389 3.2527 16.9999 3.2527 16.9999C3.2527 16.9999 4.47316 16.2631 5.96047 15.3506C7.44637 14.4381 8.67245 13.6939 8.68509 13.6968C8.69633 13.6998 9.24406 14.0541 9.89994 14.4824C10.5572 14.912 11.5361 15.5514 12.0768 15.9043C12.6175 16.2572 13.2158 16.6485 13.4068 16.7725C13.5964 16.8981 13.7622 16.9999 13.7622 16.9999C13.7622 16.9999 13.7678 16.9748 13.7622 16.9438C13.7537 16.8936 13.1849 14.1427 12.6723 11.6754C12.5501 11.0818 12.449 10.5856 12.449 10.5724C12.449 10.5532 13.3605 9.74104 16.6581 6.81888C17.0205 6.49846 17.0247 6.49403 16.9811 6.48369C16.9559 6.47779 15.5613 6.33013 13.8815 6.15441C12.2018 5.9787 10.8142 5.82957 10.7974 5.82218C10.7763 5.81332 10.7103 5.65828 10.5179 5.16362C10.3803 4.80629 9.93926 3.66784 9.53899 2.63276C9.13873 1.59767 8.74689 0.583254 8.66824 0.380962C8.58959 0.177193 8.52218 0.00738525 8.51656 1.90735e-06C8.51234 -0.00590515 8.12612 0.900721 7.65985 2.01554Z" fill="white" fill-opacity="0.6"/>
<path d="M48.6598 2.01554C48.1936 3.13037 47.6262 4.48735 47.3987 5.03221C47.1725 5.57559 46.9815 6.02595 46.9815 6.02595C46.9815 6.02595 46.549 6.06286 46.0237 6.10273C45.4998 6.1426 44.5434 6.21495 43.8988 6.26368C43.2541 6.31388 42.3721 6.38033 41.9396 6.41282C41.507 6.4453 41.118 6.47631 41.0758 6.48074L41 6.4896L41.0688 6.559C41.1081 6.59591 41.5407 7.00197 42.0295 7.46119C42.5196 7.92041 43.1614 8.52138 43.4564 8.7975C45.2358 10.466 45.6473 10.8514 45.6642 10.8647C45.688 10.8839 45.7681 10.5281 44.903 14.2092C44.5434 15.7389 44.2527 16.9999 44.2527 16.9999C44.2527 16.9999 45.4732 16.2631 46.9605 15.3506C48.4464 14.4381 49.6725 13.6939 49.6851 13.6968C49.6963 13.6998 50.2441 14.0541 50.8999 14.4824C51.5572 14.912 52.5361 15.5514 53.0768 15.9043C53.6175 16.2572 54.2158 16.6485 54.4068 16.7725C54.5964 16.8981 54.7622 16.9999 54.7622 16.9999C54.7622 16.9999 54.7678 16.9748 54.7622 16.9438C54.7537 16.8936 54.1849 14.1427 53.6723 11.6754C53.5501 11.0818 53.449 10.5856 53.449 10.5724C53.449 10.5532 54.3605 9.74104 57.6581 6.81888C58.0205 6.49846 58.0247 6.49403 57.9811 6.48369C57.9559 6.47779 56.5613 6.33013 54.8815 6.15441C53.2018 5.9787 51.8142 5.82956 51.7974 5.82218C51.7763 5.81332 51.7103 5.65828 51.5179 5.16362C51.3803 4.80629 50.9393 3.66784 50.539 2.63276C50.1387 1.59767 49.7469 0.583255 49.6682 0.380962C49.5896 0.177193 49.5222 0.00738484 49.5166 1.90735e-06C49.5123 -0.00590444 49.1261 0.90072 48.6598 2.01554Z" fill="#6C6845"/>
<path d="M48.6598 2.01554C48.1936 3.13037 47.6262 4.48735 47.3987 5.03221C47.1725 5.57559 46.9815 6.02595 46.9815 6.02595C46.9815 6.02595 46.549 6.06286 46.0237 6.10273C45.4998 6.1426 44.5434 6.21495 43.8988 6.26368C43.2541 6.31388 42.3721 6.38033 41.9396 6.41282C41.507 6.4453 41.118 6.47631 41.0758 6.48074L41 6.4896L41.0688 6.559C41.1081 6.59591 41.5407 7.00197 42.0295 7.46119C42.5196 7.92041 43.1614 8.52138 43.4564 8.7975C45.2358 10.466 45.6473 10.8514 45.6642 10.8647C45.688 10.8839 45.7681 10.5281 44.903 14.2092C44.5434 15.7389 44.2527 16.9999 44.2527 16.9999C44.2527 16.9999 45.4732 16.2631 46.9605 15.3506C48.4464 14.4381 49.6725 13.6939 49.6851 13.6968C49.6963 13.6998 50.2441 14.0541 50.8999 14.4824C51.5572 14.912 52.5361 15.5514 53.0768 15.9043C53.6175 16.2572 54.2158 16.6485 54.4068 16.7725C54.5964 16.8981 54.7622 16.9999 54.7622 16.9999C54.7622 16.9999 54.7678 16.9748 54.7622 16.9438C54.7537 16.8936 54.1849 14.1427 53.6723 11.6754C53.5501 11.0818 53.449 10.5856 53.449 10.5724C53.449 10.5532 54.3605 9.74104 57.6581 6.81888C58.0205 6.49846 58.0247 6.49403 57.9811 6.48369C57.9559 6.47779 56.5613 6.33013 54.8815 6.15441C53.2018 5.9787 51.8142 5.82956 51.7974 5.82218C51.7763 5.81332 51.7103 5.65828 51.5179 5.16362C51.3803 4.80629 50.9393 3.66784 50.539 2.63276C50.1387 1.59767 49.7469 0.583255 49.6682 0.380962C49.5896 0.177193 49.5222 0.00738484 49.5166 1.90735e-06C49.5123 -0.00590444 49.1261 0.90072 48.6598 2.01554Z" fill="white" fill-opacity="0.6"/>
<path d="M27.6598 2.0156C27.1936 3.13043 26.6262 4.48741 26.3987 5.03227C26.1725 5.57565 25.9815 6.02601 25.9815 6.02601C25.9815 6.02601 25.549 6.06293 25.0237 6.10279C24.4998 6.14266 23.5434 6.21501 22.8988 6.26374C22.2541 6.31395 21.3721 6.38039 20.9396 6.41288C20.507 6.44536 20.118 6.47637 20.0758 6.4808L20 6.48966L20.0688 6.55906C20.1081 6.59597 20.5407 7.00204 21.0295 7.46125C21.5196 7.92047 22.1614 8.52144 22.4564 8.79756C24.2358 10.4661 24.6473 10.8515 24.6642 10.8648C24.688 10.884 24.7681 10.5281 23.903 14.2093C23.5434 15.739 23.2527 17 23.2527 17C23.2527 17 24.4732 16.2632 25.9605 15.3507C27.4464 14.4381 28.6725 13.6939 28.6851 13.6969C28.6963 13.6998 29.2441 14.0542 29.8999 14.4824C30.5572 14.9121 31.5361 15.5515 32.0768 15.9044C32.6175 16.2573 33.2158 16.6486 33.4068 16.7726C33.5964 16.8981 33.7622 17 33.7622 17C33.7622 17 33.7678 16.9749 33.7622 16.9439C33.7537 16.8937 33.1849 14.1428 32.6723 11.6754C32.5501 11.0818 32.449 10.5857 32.449 10.5724C32.449 10.5532 33.3605 9.7411 36.6581 6.81894C37.0205 6.49852 37.0247 6.49409 36.9811 6.48375C36.9559 6.47785 35.5613 6.33019 33.8815 6.15447C32.2018 5.97876 30.8142 5.82963 30.7974 5.82224C30.7763 5.81338 30.7103 5.65834 30.5179 5.16368C30.3803 4.80635 29.9393 3.6679 29.539 2.63282C29.1387 1.59773 28.7469 0.583315 28.6682 0.381023C28.5896 0.177254 28.5222 0.00744629 28.5166 6.29425e-05C28.5123 -0.00584412 28.1261 0.900782 27.6598 2.0156Z" fill="#6C6845"/>
<path d="M27.6598 2.0156C27.1936 3.13043 26.6262 4.48741 26.3987 5.03227C26.1725 5.57565 25.9815 6.02601 25.9815 6.02601C25.9815 6.02601 25.549 6.06293 25.0237 6.10279C24.4998 6.14266 23.5434 6.21501 22.8988 6.26374C22.2541 6.31395 21.3721 6.38039 20.9396 6.41288C20.507 6.44536 20.118 6.47637 20.0758 6.4808L20 6.48966L20.0688 6.55906C20.1081 6.59597 20.5407 7.00204 21.0295 7.46125C21.5196 7.92047 22.1614 8.52144 22.4564 8.79756C24.2358 10.4661 24.6473 10.8515 24.6642 10.8648C24.688 10.884 24.7681 10.5281 23.903 14.2093C23.5434 15.739 23.2527 17 23.2527 17C23.2527 17 24.4732 16.2632 25.9605 15.3507C27.4464 14.4381 28.6725 13.6939 28.6851 13.6969C28.6963 13.6998 29.2441 14.0542 29.8999 14.4824C30.5572 14.9121 31.5361 15.5515 32.0768 15.9044C32.6175 16.2573 33.2158 16.6486 33.4068 16.7726C33.5964 16.8981 33.7622 17 33.7622 17C33.7622 17 33.7678 16.9749 33.7622 16.9439C33.7537 16.8937 33.1849 14.1428 32.6723 11.6754C32.5501 11.0818 32.449 10.5857 32.449 10.5724C32.449 10.5532 33.3605 9.7411 36.6581 6.81894C37.0205 6.49852 37.0247 6.49409 36.9811 6.48375C36.9559 6.47785 35.5613 6.33019 33.8815 6.15447C32.2018 5.97876 30.8142 5.82963 30.7974 5.82224C30.7763 5.81338 30.7103 5.65834 30.5179 5.16368C30.3803 4.80635 29.9393 3.6679 29.539 2.63282C29.1387 1.59773 28.7469 0.583315 28.6682 0.381023C28.5896 0.177254 28.5222 0.00744629 28.5166 6.29425e-05C28.5123 -0.00584412 28.1261 0.900782 27.6598 2.0156Z" fill="white" fill-opacity="0.6"/>
</svg>
